<?xml version="1.0" encoding="UTF-8"?>
<svg version="1.1" xmlns="http://www.w3.org/2000/svg" width="2048" height="2048">
<path d="M0 0 C675.84 0 1351.68 0 2048 0 C2048 675.84 2048 1351.68 2048 2048 C1372.16 2048 696.32 2048 0 2048 C0 1372.16 0 696.32 0 0 Z " fill="#FDFDFD" transform="translate(0,0)"/>
<path d="M0 0 C1.13904785 0.13921875 2.2780957 0.2784375 3.45166016 0.421875 C71.97890284 9.13527275 143.18044448 35.26019553 194.48828125 82.69921875 C196.5421246 84.58057759 198.62504043 86.40483031 200.734375 88.22265625 C212.08847971 98.13446488 222.86683163 109.00152391 232 121 C233.01049838 122.28351381 234.02232559 123.56598206 235.03515625 124.84765625 C246.93237334 140.0122949 256.94969162 155.99757039 266 173 C266.34095703 173.63131836 266.68191406 174.26263672 267.03320312 174.91308594 C277.58216025 194.55344051 285.43130818 215.73368712 292 237 C292.21769043 237.69464355 292.43538086 238.38928711 292.65966797 239.10498047 C294.8219067 246.05320215 296.62947827 252.71307271 297 260 C295.45904459 261.54095541 294.07676771 261.14619806 291.92578125 261.1484375 C283.98758457 261.06696247 276.09144722 260.19520596 268.19555664 259.43261719 C235.56666167 256.31100084 202.94565543 255.64663661 170.18701172 255.68432617 C165.80149142 255.68898223 161.41624685 255.68192074 157.03076172 255.66381836 C77.76368931 254.25277137 77.76368931 254.25277137 9.5234375 289.44873047 C-3.09403278 302.29671222 -9.30428671 318.40626976 -15.28222656 334.99584961 C-23.5031571 357.62872322 -31.70762992 369.9975795 -53.55029297 380.76025391 C-79.54294068 393.62676547 -104.06225638 409.30210449 -126.94482422 427.09570312 C-130.01615058 429.48254113 -133.10860513 431.83574664 -136.23046875 434.15625 C-136.94992676 434.69137207 -137.66938477 435.22649414 -138.41064453 435.77783203 C-139.81198172 436.81794411 -141.21521119 437.85551312 -142.62060547 438.89013672 C-145.34093634 440.91144154 -147.85518832 442.85342232 -150.2421875 445.26953125 C-152.83688528 447.82386707 -155.48939343 448.29787869 -159 449 C-159.99 448.67 -160.98 448.34 -162 448 C-162.1043335 448.58152832 -162.20866699 449.16305664 -162.31616211 449.76220703 C-167.28385558 476.64402951 -177.79742173 503.47220205 -195 525 C-195.74894531 526.02222656 -196.49789063 527.04445313 -197.26953125 528.09765625 C-208.55170886 543.34751092 -222.41756727 557.17020925 -238 568 C-239.08351451 568.7862087 -240.16684269 569.57267425 -241.25 570.359375 C-258.11903118 582.34046642 -277.09272828 591.34891357 -296.58227539 598.14306641 C-298.24339835 598.73183159 -299.89603954 599.34491539 -301.54077148 599.97802734 C-314.25229832 604.83170987 -327.6871957 607.34888926 -341 610 C-342.75352783 610.34973877 -342.75352783 610.34973877 -344.54248047 610.70654297 C-362.14110501 614.0237085 -379.57937434 614.36117792 -397.4375 614.375 C-398.54291138 614.37708466 -399.64832275 614.37916931 -400.78723145 614.38131714 C-413.0171413 614.37870323 -424.92980429 614.13648081 -437 612 C-438.00764404 611.82855469 -439.01528809 611.65710937 -440.0534668 611.48046875 C-442.92113758 610.96695617 -445.772564 610.40454745 -448.625 609.8125 C-449.63046875 609.60471924 -450.6359375 609.39693848 -451.671875 609.18286133 C-462.0591096 606.93343278 -472.01636578 603.60866779 -482 600 C-479.68069935 592.70055721 -476.91543693 585.60964644 -474.07394409 578.50131226 C-468.53363142 564.6239566 -463.18571861 550.67771138 -457.9375 536.6875 C-457.61857788 535.83968964 -457.29965576 534.99187927 -456.97106934 534.11837769 C-453.46835512 524.80024813 -450.04045495 515.48127943 -447 506 C-443.40377739 506.68783286 -440.08794438 507.62181638 -436.625 508.8125 C-419.61843281 513.94265784 -403.06617587 515.37742442 -385.375 515.375 C-384.5133725 515.37681274 -383.651745 515.37862549 -382.76400757 515.38049316 C-372.64876672 515.37808532 -362.97090874 514.87294828 -353 513 C-351.64528572 512.79317339 -350.28990807 512.59059114 -348.93359375 512.39453125 C-329.77820196 509.20553306 -307.37625593 502.30735504 -293.34765625 488.21484375 C-292 487 -292 487 -290 487 C-289.73058594 486.41734375 -289.46117187 485.8346875 -289.18359375 485.234375 C-287.99684964 482.99405279 -286.65767477 481.21454094 -285.0625 479.25 C-279.59738219 471.99435459 -277.84525697 465.09194225 -279 456 C-280.84815812 449.24666748 -285.10113762 445.46260112 -291 442 C-305.09319188 434.14297685 -323.51388987 433.75487649 -339.25 432.0625 C-370.53480854 428.68268224 -402.63007482 423.52603804 -427 402 C-428.46179688 400.83984375 -428.46179688 400.83984375 -429.953125 399.65625 C-433.10138336 397.0365967 -435.61396562 394.01955917 -438.0625 390.75 C-438.4965918 390.17427246 -438.93068359 389.59854492 -439.37792969 389.00537109 C-458.15264061 363.72520164 -462.01489858 331.10512776 -457.9375 300.5625 C-451.42181329 257.47793092 -428.02258335 218.36398569 -392.92919922 192.47216797 C-341.88915265 155.97859258 -282.95936303 150.42066075 -222 151 C-222 145.06 -222 139.12 -222 133 C-300.9216098 133.6050877 -300.9216098 133.6050877 -374.91796875 158.96875 C-377 160 -377 160 -379 160 C-377.49690054 153.94830542 -374.13663516 149.48835449 -370.5625 144.5 C-369.6202356 143.17258789 -369.6202356 143.17258789 -368.65893555 141.81835938 C-358.72031658 127.90958804 -348.12556642 115.07269331 -336 103 C-334.72575634 101.70391708 -333.45240032 100.40696118 -332.1796875 99.109375 C-324.44224509 91.25529675 -316.76781681 83.70730881 -308 77 C-307.23558594 76.3915625 -306.47117187 75.783125 -305.68359375 75.15625 C-300.2789937 70.87016718 -294.69146551 66.89416061 -289 63 C-287.94554687 62.26007813 -286.89109375 61.52015625 -285.8046875 60.7578125 C-234.24090075 25.0218285 -170.92186452 5.57503669 -109 -1 C-108.05898438 -1.10441406 -107.11796875 -1.20882812 -106.1484375 -1.31640625 C-71.09739749 -5.04825552 -34.96090025 -4.32986994 0 0 Z " fill="#CCCDCE" transform="translate(1122,719)"/>
<path d="M0 0 C2.13411352 0.00503099 4.2682282 0.00959104 6.40234375 0.01367188 C11.55992533 0.0245371 16.71744927 0.04171116 21.875 0.0625 C22.06681361 11.82605293 21.48610791 23.40286577 20.5625 35.125 C20.42745145 36.89571183 20.29294017 38.66646472 20.15893555 40.43725586 C19.80915681 45.04062287 19.45220855 49.64340514 19.09362793 54.24609375 C18.72725285 58.96580662 18.36784927 63.68605015 18.0078125 68.40625 C17.30359541 77.6255244 16.59178297 86.84419465 15.875 96.0625 C15.06196411 96.08624695 14.24892822 96.1099939 13.41125488 96.13446045 C10.33122163 96.22652815 7.25134178 96.32255764 4.17150879 96.42108154 C2.20850535 96.48273381 0.24536603 96.54001077 -1.71777344 96.59716797 C-32.85453116 97.6060464 -68.44350205 102.14613112 -92.40625 124.12890625 C-98.85249215 131.38092867 -101.57287087 138.17896533 -101.45703125 147.73046875 C-100.87123669 153.60908945 -98.593061 156.97825164 -94.140625 160.73828125 C-85.35734646 167.01427637 -75.64305365 169.70677848 -65.125 171.5 C-63.94728027 171.70753906 -62.76956055 171.91507813 -61.55615234 172.12890625 C-51.24887982 173.86707233 -40.89708463 175.077327 -30.51251221 176.25018311 C4.02372509 180.15469088 40.99408783 186.40142798 64.36132812 214.87353516 C82.01781422 237.92642295 85.70023992 267.04702819 82.00415039 295.24731445 C77.84219607 322.71942889 66.28384762 351.27657069 48.875 373.0625 C48.12605469 374.08472656 47.37710937 375.10695313 46.60546875 376.16015625 C35.32329114 391.41001092 21.45743273 405.23270925 5.875 416.0625 C4.79148549 416.8487087 3.70815731 417.63517425 2.625 418.421875 C-14.24403118 430.40296642 -33.21772828 439.41141357 -52.70727539 446.20556641 C-54.36839835 446.79433159 -56.02103954 447.40741539 -57.66577148 448.04052734 C-70.37729832 452.89420987 -83.8121957 455.41138926 -97.125 458.0625 C-98.87852783 458.41223877 -98.87852783 458.41223877 -100.66748047 458.76904297 C-118.26610501 462.0862085 -135.70437434 462.42367792 -153.5625 462.4375 C-154.66791138 462.43958466 -155.77332275 462.44166931 -156.91223145 462.44381714 C-169.1421413 462.44120323 -181.05480429 462.19898081 -193.125 460.0625 C-194.13264404 459.89105469 -195.14028809 459.71960937 -196.1784668 459.54296875 C-199.04613758 459.02945617 -201.897564 458.46704745 -204.75 457.875 C-205.75546875 457.66721924 -206.7609375 457.45943848 -207.796875 457.24536133 C-218.1841096 454.99593278 -228.14136578 451.67116779 -238.125 448.0625 C-235.80569935 440.76305721 -233.04043693 433.67214644 -230.19894409 426.56381226 C-224.65863142 412.6864566 -219.31071861 398.74021138 -214.0625 384.75 C-213.74357788 383.90218964 -213.42465576 383.05437927 -213.09606934 382.18087769 C-209.59335512 372.86274813 -206.16545495 363.54377943 -203.125 354.0625 C-199.52877739 354.75033286 -196.21294438 355.68431638 -192.75 356.875 C-175.74343281 362.00515784 -159.19117587 363.43992442 -141.5 363.4375 C-140.20755875 363.44021912 -140.20755875 363.44021912 -138.88900757 363.44299316 C-128.77376672 363.44058532 -119.09590874 362.93544828 -109.125 361.0625 C-107.77028572 360.85567339 -106.41490807 360.65309114 -105.05859375 360.45703125 C-85.90320196 357.26803306 -63.50125593 350.36985504 -49.47265625 336.27734375 C-48.125 335.0625 -48.125 335.0625 -46.125 335.0625 C-45.85558594 334.47984375 -45.58617187 333.8971875 -45.30859375 333.296875 C-44.12184964 331.05655279 -42.78267477 329.27704094 -41.1875 327.3125 C-35.72238219 320.05685459 -33.97025697 313.15444225 -35.125 304.0625 C-36.97315812 297.30916748 -41.22613762 293.52510112 -47.125 290.0625 C-61.21819188 282.20547685 -79.63888987 281.81737649 -95.375 280.125 C-126.65980854 276.74518224 -158.75507482 271.58853804 -183.125 250.0625 C-184.58679688 248.90234375 -184.58679688 248.90234375 -186.078125 247.71875 C-189.22638336 245.0990967 -191.73896562 242.08205917 -194.1875 238.8125 C-194.6215918 238.23677246 -195.05568359 237.66104492 -195.50292969 237.06787109 C-214.27764061 211.78770164 -218.13989858 179.16762776 -214.0625 148.625 C-207.54681329 105.54043092 -184.14758335 66.42648569 -149.05419922 40.53466797 C-120.74862392 20.29621374 -88.9466847 8.08824517 -54.625 2.6875 C-53.63677246 2.5318457 -52.64854492 2.37619141 -51.63037109 2.21582031 C-34.5107953 -0.24067439 -17.25229051 -0.07169291 0 0 Z " fill="#1D1C1C" transform="translate(878.125,870.9375)"/>
<path d="M0 0 C9.08404172 3.2298815 14.37873774 14.21227096 18.48046875 22.28125 C30.52141166 47.73074909 32.50206561 77.44157274 24.04882812 104.43896484 C22.32457496 109.15791911 20.16486788 113.56496246 17.8125 118 C17.27753906 119.0621875 16.74257812 120.124375 16.19140625 121.21875 C9.09366829 134.42701056 -2.0245251 144.99836057 -14.44140625 153.203125 C-15.51849854 153.91629883 -16.59559082 154.62947266 -17.70532227 155.36425781 C-18.52444092 155.90405273 -19.34355957 156.44384766 -20.1875 157 C-11.54781914 162.86499656 -2.90705171 168.72839007 5.73461914 174.5904541 C7.11598801 175.52751593 8.49733579 176.46460885 9.87866211 177.4017334 C13.96896797 180.17665775 18.05973432 182.95090113 22.15109253 185.72427368 C23.44332411 186.60035239 24.7354232 187.47662656 26.02737427 188.3531189 C38.88350154 197.07456355 51.78708602 205.72038614 64.8125 214.1875 C66.79955215 215.48035659 68.78652913 216.77332872 70.7734375 218.06640625 C71.77213867 218.71625488 72.77083984 219.36610352 73.79980469 220.03564453 C76.75833301 221.96468172 79.71195128 223.90100333 82.6640625 225.83984375 C94.30252212 233.47663085 106.01918127 240.95853111 117.89697266 248.21777344 C120.53219401 249.82865234 123.16444628 251.44429633 125.79623413 253.06077576 C140.02992853 261.79652944 154.36973674 270.29150188 168.96728516 278.40966797 C171.86604386 280.02992833 174.75238761 281.67061544 177.63671875 283.31640625 C194.1371763 292.70089029 210.94433084 301.42696859 227.86962891 310.01391602 C229.74455398 310.96551471 231.61849472 311.91902455 233.4921875 312.87304688 C236.78344488 314.54641088 240.07814407 316.21269791 243.375 317.875 C244.80017944 318.59743896 244.80017944 318.59743896 246.25415039 319.33447266 C251.35628801 321.88855445 256.43004766 324.1032665 261.8125 326 C261.8125 326.33 261.8125 326.66 261.8125 327 C241.24471816 327.07031257 220.67695636 327.1230966 200.10907841 327.15543652 C190.55745978 327.17085658 181.00591616 327.19185229 171.4543457 327.22631836 C163.12198899 327.25637047 154.78968665 327.27561025 146.45727724 327.28226548 C142.05186917 327.28615116 137.64661651 327.29517964 133.24125862 327.31719017 C129.08063602 327.33780622 124.92023038 327.34378406 120.75956154 327.33932304 C119.24604862 327.34013718 117.73252717 327.3459514 116.21905899 327.35761642 C79.90137276 327.62340728 49.16290179 310.44101127 18.8125 292 C17.41161133 291.15405273 17.41161133 291.15405273 15.98242188 290.29101562 C-0.42819142 280.36161433 -16.10391778 269.5982177 -31.609375 258.3203125 C-34.6491823 256.10989754 -37.70111831 253.91822278 -40.765625 251.7421875 C-50.30556827 244.95114533 -59.47628474 237.83811069 -68.50292969 230.38037109 C-71.38767893 228.01654904 -74.33509458 225.73596098 -77.29296875 223.46484375 C-79.61293198 221.67105775 -81.89755677 219.83195458 -84.1875 218 C-84.5175 253.97 -84.8475 289.94 -85.1875 327 C-116.5375 327 -147.8875 327 -180.1875 327 C-180.42931821 291.29151168 -180.42931821 291.29151168 -180.48046875 276.30078125 C-180.51603816 265.95961608 -180.55779915 255.61874474 -180.64013672 245.27783203 C-180.70008063 237.74576252 -180.73868263 230.21393192 -180.75203097 222.68163049 C-180.7598296 218.69595714 -180.77805998 214.71096706 -180.82188034 210.72551346 C-180.86285958 206.96771821 -180.87511892 203.21088217 -180.86614609 199.45288467 C-180.86856238 197.4293412 -180.90071805 195.40590024 -180.934021 193.38262939 C-180.87736865 184.9659167 -179.27864555 179.70271446 -174.1875 173 C-173.61240881 172.21283915 -173.03731762 171.42567829 -172.44479942 170.61466408 C-154.15927812 145.98238655 -128.98746098 130.6914877 -102.6875 116 C-74.96780718 100.51497865 -59.61669607 87.19765344 -48.8125 56.625 C-44.26365578 43.84946762 -38.40916192 31.10438719 -29.1875 21 C-28.39988281 20.12085938 -27.61226562 19.24171875 -26.80078125 18.3359375 C-20.93797441 12.12221813 -9.21242515 0 0 0 Z " fill="#1D1C1C" transform="translate(1170.1875,1004)"/>
<path d="M0 0 C1.02327896 -0.00701431 2.04655792 -0.01402863 3.10084534 -0.02125549 C6.39800464 -0.03868529 9.69498377 -0.04511081 12.9921875 -0.046875 C14.1229068 -0.04754974 15.2536261 -0.04822449 16.41860962 -0.04891968 C44.04076732 -0.02281846 70.96795416 1.4156007 97.8671875 8.203125 C98.81513184 8.4393457 99.76307617 8.67556641 100.73974609 8.91894531 C138.94883802 18.56646658 173.40000252 35.02268504 203.8671875 60.203125 C204.43888672 60.67186035 205.01058594 61.1405957 205.59960938 61.62353516 C237.7289423 88.08456604 237.7289423 88.08456604 239.8046875 101.390625 C239.835625 102.7828125 239.835625 102.7828125 239.8671875 104.203125 C237.17218863 105.10145796 235.59675161 105.33538559 232.82983398 105.34912109 C231.63004662 105.35511826 231.63004662 105.35511826 230.40602112 105.36123657 C229.54629196 105.35804413 228.68656281 105.35485168 227.80078125 105.3515625 C226.90370956 105.34941742 226.00663788 105.34727234 225.0823822 105.34506226 C217.12966483 105.28242484 209.26924679 104.7244915 201.35073853 104.03509521 C176.26663798 101.89071179 151.12616902 101.37823858 125.97012329 100.7403717 C125.2671172 100.72253191 124.5641111 100.70469212 123.83980179 100.68631172 C122.439767 100.6508025 121.03972988 100.61538476 119.6396904 100.58006096 C110.66824573 100.35217381 101.70060632 100.0764953 92.734375 99.69140625 C91.8254097 99.65284515 90.9164444 99.61428406 89.97993469 99.57455444 C72.468849 98.77612478 61.06386211 93.76092331 46.99780273 83.37475586 C38.57661617 77.17654516 29.80889933 71.61557775 20.8671875 66.203125 C19.9069165 65.616521 19.9069165 65.616521 18.92724609 65.01806641 C-13.54723709 45.35310715 -50.75717415 31.84689414 -87.5546875 23.078125 C-93.46530963 21.63273269 -99.29531266 19.91789058 -105.1328125 18.203125 C-104.1328125 16.203125 -104.1328125 16.203125 -101.96582031 15.39697266 C-101.01545898 15.13964355 -100.06509766 14.88231445 -99.0859375 14.6171875 C-97.49458984 14.18369995 -97.49458984 14.18369995 -95.87109375 13.74145508 C-94.14439453 13.28935669 -94.14439453 13.28935669 -92.3828125 12.828125 C-91.19558594 12.51576904 -90.00835938 12.20341309 -88.78515625 11.8815918 C-60.14377337 4.47705598 -29.61810611 0.13766915 0 0 Z " fill="#FAFCFB" transform="translate(1067.1328125,761.796875)"/>
<path d="M0 0 C5 5.01629726 5 5.01629726 5 9 C-6.88369637 9.16289228 -18.7671229 9.28692353 -30.65171242 9.3626852 C-36.17153255 9.39906539 -41.69058341 9.44833507 -47.20996094 9.52807617 C-52.54631376 9.60468195 -57.8819313 9.64610441 -63.21879196 9.6641407 C-65.24483169 9.67697757 -67.27083563 9.70204316 -69.29655838 9.7401104 C-86.34746049 10.0475009 -97.04542404 6.71471011 -110.375 -4.3125 C-117.59431234 -10.0465742 -125.054693 -15.00332667 -132.94580078 -19.75439453 C-136.6557539 -22.00400005 -140.32479329 -24.31923702 -144 -26.625 C-145.35400061 -27.4716198 -146.70815118 -28.31799985 -148.0625 -29.1640625 C-149.031875 -29.76992188 -150.00125 -30.37578125 -151 -31 C-114.29896247 -52.60077492 -30.88998268 -23.78038349 0 0 Z " fill="#191818" transform="translate(1233,833)"/>
<path d="M0 0 C1.83756363 -0.01653374 1.83756363 -0.01653374 3.71224976 -0.03340149 C7.64677611 -0.06008558 11.58103656 -0.06673448 15.515625 -0.06640625 C16.18459557 -0.06731766 16.85356613 -0.06822906 17.54280853 -0.06916809 C38.7188581 -0.09503386 59.02039023 0.88983243 79.765625 5.37109375 C81.60110138 5.73411019 83.43700629 6.09497018 85.2734375 6.453125 C93.93411332 8.20347689 102.38011337 10.58737882 110.765625 13.37109375 C111.68859375 13.67402344 112.6115625 13.97695313 113.5625 14.2890625 C115.63324719 14.97395249 117.70000762 15.67088447 119.765625 16.37109375 C119.765625 17.03109375 119.765625 17.69109375 119.765625 18.37109375 C120.64774658 18.48952637 121.52986816 18.60795898 122.4387207 18.72998047 C125.64108751 19.34709467 128.06533688 20.23158623 130.99609375 21.62890625 C131.95862061 22.08604004 132.92114746 22.54317383 133.9128418 23.01416016 C134.91613525 23.50319824 135.91942871 23.99223633 136.953125 24.49609375 C137.98671143 24.9967334 139.02029785 25.49737305 140.08520508 26.01318359 C151.60157259 31.66251613 161.60019936 38.57709727 171.765625 46.37109375 C172.54035156 46.9125 173.31507813 47.45390625 174.11328125 48.01171875 C174.65855469 48.4603125 175.20382812 48.90890625 175.765625 49.37109375 C175.765625 50.03109375 175.765625 50.69109375 175.765625 51.37109375 C172.91367278 52.79706986 170.44101325 52.50311895 167.265625 52.49609375 C166.1003125 52.49867188 164.935 52.50125 163.734375 52.50390625 C160.765625 52.37109375 160.765625 52.37109375 158.765625 51.37109375 C158.435625 52.36109375 158.105625 53.35109375 157.765625 54.37109375 C157.0746875 53.63375 156.38375 52.89640625 155.671875 52.13671875 C141.08202614 37.60817177 117.02948972 30.8706938 97.765625 25.37109375 C96.53714844 25.00371094 95.30867188 24.63632812 94.04296875 24.2578125 C67.29955617 16.8497442 33.17301054 12.97521766 5.73754883 19.04052734 C2.15834585 19.43864127 0.47048186 18.7528375 -2.75390625 17.203125 C-3.77677734 16.72166016 -4.79964844 16.24019531 -5.85351562 15.74414062 C-6.90732422 15.22916016 -7.96113281 14.71417969 -9.046875 14.18359375 C-11.13657074 13.18979287 -13.22641228 12.19629853 -15.31640625 11.203125 C-16.31365723 10.72311035 -17.3109082 10.2430957 -18.33837891 9.74853516 C-22.27009424 7.87846789 -26.24280057 6.1090641 -30.234375 4.37109375 C-21.52057003 -0.60720944 -9.75092491 0.04773577 0 0 Z " fill="#B4B8BA" transform="translate(1077.234375,782.62890625)"/>
<path d="M0 0 C7.56412358 0.07195361 12.43720409 2.18729468 18.5625 6.4375 C21.41157892 10.6651655 21.35668015 14.36279245 20.5 19.3125 C18.33605984 23.72052625 16.11803133 26.54389226 11.5 28.3125 C6.23656236 28.96439365 1.94966823 29.01048841 -2.875 26.6875 C-11.14119601 19.20856075 -11.14119601 19.20856075 -11.7734375 14.10546875 C-12.05026203 7.00385486 -12.05026203 7.00385486 -9.0625 3.25 C-8.216875 2.610625 -7.37125 1.97125 -6.5 1.3125 C-4.74521418 -0.44228582 -2.38495037 0.05721472 0 0 Z " fill="#181818" transform="translate(1067.5,1054.6875)"/>
<path d="M0 0 C0 0.66 0 1.32 0 2 C-15.61244885 6.10729158 -31.19437872 6.32144541 -47.24804688 6.26074219 C-50.62648365 6.24999528 -54.00439148 6.26071091 -57.3828125 6.2734375 C-68.75169905 6.2796948 -79.78937306 6.01163508 -91 4 C-88.11054254 2.36771572 -85.96070975 1.73121917 -82.65234375 1.62109375 C-81.75854004 1.58749756 -80.86473633 1.55390137 -79.94384766 1.51928711 C-78.95175293 1.49229736 -77.9596582 1.46530762 -76.9375 1.4375 C-75.34881104 1.38444702 -75.34881104 1.38444702 -73.72802734 1.33032227 C-69.81900857 1.20645445 -65.90963346 1.10194334 -62 1 C-60.30647683 0.95446551 -58.61295475 0.90889052 -56.91943359 0.86328125 C-51.32146186 0.71415178 -45.72329081 0.5740791 -40.125 0.4375 C-39.22159882 0.41517303 -38.31819763 0.39284607 -37.38742065 0.36984253 C-24.92257297 0.06706243 -12.46842767 -0.05618016 0 0 Z " fill="#1E1D1C" transform="translate(776,1327)"/>
<path d="M0 0 C1.485 0.2475 1.485 0.2475 3 0.5 C3 1.16 3 1.82 3 2.5 C13.23 2.83 23.46 3.16 34 3.5 C34 3.83 34 4.16 34 4.5 C27.01150694 4.55124883 20.0230634 4.58596069 13.03442383 4.60986328 C10.66331166 4.61984149 8.29221153 4.63342884 5.92114258 4.65087891 C-6.86957769 4.74256866 -19.38364206 4.82341109 -32 2.5 C-28.12060813 0.37028432 -24.60785438 0.06940243 -20.25 -0.125 C-19.57195313 -0.16367188 -18.89390625 -0.20234375 -18.1953125 -0.2421875 C-5.50598883 -0.91766481 -5.50598883 -0.91766481 0 0 Z " fill="#3D3B38" transform="translate(717,1328.5)"/>
<path d="M0 0 C26.07 0 52.14 0 79 0 C79 0.33 79 0.66 79 1 C78.09942116 1.0154612 78.09942116 1.0154612 77.1806488 1.03123474 C70.80257562 1.14133308 64.42458825 1.2557053 58.04663086 1.37231445 C55.68174067 1.41502741 53.31683199 1.45673119 50.9519043 1.49731445 C37.66723344 1.72601973 24.40108831 2.01463288 11.13365173 2.760849 C10.25044754 2.80633377 9.36724335 2.85181854 8.45727539 2.89868164 C7.68928116 2.94223282 6.92128693 2.985784 6.13002014 3.03065491 C3.93386173 2.99904815 2.10095904 2.61796857 0 2 C0 1.34 0 0.68 0 0 Z " fill="#141212" transform="translate(678,1327)"/>
<path d="M0 0 C2.31 0.66 4.62 1.32 7 2 C7 2.33 7 2.66 7 3 C-17.00560927 3.1392561 -40.99848035 2.92770407 -65 2.5 C-65.67127048 2.48804218 -66.34254097 2.47608437 -67.03415298 2.46376419 C-75.35621264 2.31498345 -83.6781548 2.16031305 -92 2 C-92 1.67 -92 1.34 -92 1 C-84.28667713 0.97637056 -76.57336342 0.95883659 -68.86001301 0.94818783 C-65.27474462 0.94306571 -61.68950175 0.93617448 -58.10424805 0.92456055 C-38.70998278 0.86337934 -19.37949933 1.17516646 0 2 C0 1.34 0 0.68 0 0 Z " fill="#191919" transform="translate(1425,1328)"/>
<path d="M0 0 C9.24 0 18.48 0 28 0 C28 0.33 28 0.66 28 1 C18.03116441 2.67896178 9.80821092 3.75318201 0 1 C0 0.67 0 0.34 0 0 Z " fill="#10100D" transform="translate(832,967)"/>
<path d="M0 0 C2.31 0.66 4.62 1.32 7 2 C7 2.33 7 2.66 7 3 C-6.2 3 -19.4 3 -33 3 C-33 2.67 -33 2.34 -33 2 C-22.11 2 -11.22 2 0 2 C0 1.34 0 0.68 0 0 Z " fill="#292928" transform="translate(1425,1328)"/>
<path d="M0 0 C1.18916016 0.01353516 1.18916016 0.01353516 2.40234375 0.02734375 C4.35169281 0.05082988 6.30088575 0.08669863 8.25 0.125 C7.25 2.125 7.25 2.125 5.45703125 2.7421875 C-0.61152356 3.79478639 -6.72306788 3.15086079 -12.75 2.125 C-8.77389214 -0.58986934 -4.61098023 -0.09940753 0 0 Z " fill="#302D2A" transform="translate(697.75,1328.875)"/>
<path d="M0 0 C0.99 0.33 1.98 0.66 3 1 C2.52431821 5.99465883 1.1835207 9.10903025 -2 13 C-4.75 14.375 -4.75 14.375 -7 15 C-5.76203207 12.42090014 -4.39252444 9.96031405 -2.9375 7.5 C-1.5072995 5.02772032 -0.45675276 2.85470472 0 0 Z " fill="#D3D5D4" transform="translate(1089,1068)"/>
<path d="M0 0 C3.3 0 6.6 0 10 0 C10.33 0.66 10.66 1.32 11 2 C9.56445975 2.50559908 8.1264798 3.0042749 6.6875 3.5 C5.48673828 3.91765625 5.48673828 3.91765625 4.26171875 4.34375 C2 5 2 5 -1 5 C-0.67 3.35 -0.34 1.7 0 0 Z " fill="#252422" transform="translate(821,1313)"/>
<path d="M0 0 C0.66 0.33 1.32 0.66 2 1 C1.67 1.99 1.34 2.98 1 4 C-0.74965358 4.05429959 -2.49979787 4.09292823 -4.25 4.125 C-5.22453125 4.14820313 -6.1990625 4.17140625 -7.203125 4.1953125 C-10.0196498 3.99862781 -11.60949036 3.44568916 -14 2 C-13.15695312 1.93941406 -12.31390625 1.87882813 -11.4453125 1.81640625 C-10.34960938 1.73261719 -9.25390625 1.64882813 -8.125 1.5625 C-7.03445313 1.48128906 -5.94390625 1.40007813 -4.8203125 1.31640625 C-2.05271029 1.16998297 -2.05271029 1.16998297 0 0 Z " fill="#DFE0E2" transform="translate(1253,833)"/>
<path d="M0 0 C7.50769231 0.61538462 7.50769231 0.61538462 10 2.5625 C10.33 3.036875 10.66 3.51125 11 4 C2.42857143 4.28571429 2.42857143 4.28571429 -1 2 C-0.67 1.34 -0.34 0.68 0 0 Z " fill="#2E2D2C" transform="translate(1261,1326)"/>
<path d="M0 0 C1.60379341 -0.05416188 3.20811406 -0.09286638 4.8125 -0.125 C5.70582031 -0.14820313 6.59914063 -0.17140625 7.51953125 -0.1953125 C10 0 10 0 13 2 C10.24921116 2.91692961 8.64051087 3.10886083 5.8125 3.0625 C3.9253125 3.0315625 3.9253125 3.0315625 2 3 C2 2.34 2 1.68 2 1 C1.34 0.67 0.68 0.34 0 0 Z " fill="#0C0E0D" transform="translate(1136,801)"/>
<path d="M0 0 C0.99 0 1.98 0 3 0 C2.67 1.98 2.34 3.96 2 6 C2.66 6 3.32 6 4 6 C3.67 6.99 3.34 7.98 3 9 C-1.875 4.25 -1.875 4.25 -3 2 C-2.01 2 -1.02 2 0 2 C0 1.34 0 0.68 0 0 Z " fill="#121011" transform="translate(839,1161)"/>
<path d="M0 0 C1.49080078 0.02707031 1.49080078 0.02707031 3.01171875 0.0546875 C3.77097656 0.07789063 4.53023437 0.10109375 5.3125 0.125 C4.3225 1.61 4.3225 1.61 3.3125 3.125 C-0.6475 2.795 -4.6075 2.465 -8.6875 2.125 C-5.26655758 -0.15562828 -4.00562778 -0.09425007 0 0 Z " fill="#141412" transform="translate(773.6875,1145.875)"/>
<path d="M0 0 C-0.495 0.474375 -0.99 0.94875 -1.5 1.4375 C-3.11542197 2.75923698 -3.11542197 2.75923698 -3 4 C-6.3 4.33 -9.6 4.66 -13 5 C-4.38461538 -1.46153846 -4.38461538 -1.46153846 0 0 Z " fill="#292929" transform="translate(767,892)"/>
<path d="M0 0 C1.65 0 3.3 0 5 0 C5.33 1.32 5.66 2.64 6 4 C3.36 4.33 0.72 4.66 -2 5 C-2.33 4.34 -2.66 3.68 -3 3 C-1.68 2.67 -0.36 2.34 1 2 C0.67 1.34 0.34 0.68 0 0 Z " fill="#F2F3EE" transform="translate(840,971)"/>
<path d="M0 0 C2.31 0 4.62 0 7 0 C6 2 6 2 4.234375 2.62109375 C1.85849677 3.02399618 -0.34179517 3.09791478 -2.75 3.0625 C-3.54921875 3.05347656 -4.3484375 3.04445313 -5.171875 3.03515625 C-5.77515625 3.02355469 -6.3784375 3.01195312 -7 3 C-7 2.67 -7 2.34 -7 2 C-4.69 2 -2.38 2 0 2 C0 1.34 0 0.68 0 0 Z " fill="#3E3B38" transform="translate(699,1329)"/>
<path d="M0 0 C2.97 0 5.94 0 9 0 C9 0.66 9 1.32 9 2 C3.25 3 3.25 3 1 3 C0.67 2.01 0.34 1.02 0 0 Z " fill="#14130F" transform="translate(1239,1319)"/>
<path d="M0 0 C2.4375 0.375 2.4375 0.375 5 1 C5.33 1.66 5.66 2.32 6 3 C3.625 4.0625 3.625 4.0625 1 5 C0.34 4.67 -0.32 4.34 -1 4 C-0.67 2.68 -0.34 1.36 0 0 Z " fill="#252422" transform="translate(858,1297)"/>
<path d="M0 0 C3.87132028 0.57352893 6.08172796 2.48704352 9 5 C7.1875 5.6875 7.1875 5.6875 5 6 C3.25 4.6875 3.25 4.6875 2 3 C2 2.34 2 1.68 2 1 C1.34 0.67 0.68 0.34 0 0 Z " fill="#262523" transform="translate(1252,1231)"/>
<path d="M0 0 C0.66 0 1.32 0 2 0 C2 2.64 2 5.28 2 8 C1.01 8.495 1.01 8.495 0 9 C-1.125 3.375 -1.125 3.375 0 0 Z " fill="#D7D9D8" transform="translate(959,1113)"/>
<path d="M0 0 C-0.66 1.32 -1.32 2.64 -2 4 C-6.875 2.25 -6.875 2.25 -8 0 C-4.94736336 -0.98120464 -3.05263664 -0.98120464 0 0 Z " fill="#343634" transform="translate(1090,801)"/>
<path d="M0 0 C0.66 0.33 1.32 0.66 2 1 C0.1875 2.5625 0.1875 2.5625 -2 4 C-2.99 3.67 -3.98 3.34 -5 3 C-2.625 1.4375 -2.625 1.4375 0 0 Z M-3 4 C-2.67 4.99 -2.34 5.98 -2 7 C-2.99 7 -3.98 7 -5 7 C-5.33 6.34 -5.66 5.68 -6 5 C-5.01 4.67 -4.02 4.34 -3 4 Z " fill="#242423" transform="translate(1087,1109)"/>
<path d="M0 0 C-0.33 0.99 -0.66 1.98 -1 3 C-3.875 3.125 -3.875 3.125 -7 3 C-7.66 2.34 -8.32 1.68 -9 1 C-5.64919071 -1.10976881 -3.77897651 -1.0497157 0 0 Z " fill="#151513" transform="translate(919,1066)"/>
<path d="M0 0 C1.32 0 2.64 0 4 0 C4 0.99 4 1.98 4 3 C4.99 3.33 5.98 3.66 7 4 C1.25 4.125 1.25 4.125 -1 3 C-0.67 2.01 -0.34 1.02 0 0 Z " fill="#D5D7D4" transform="translate(912,1060)"/>
<path d="M0 0 C0.66 0 1.32 0 2 0 C2.66 1.98 3.32 3.96 4 6 C2.35 5.67 0.7 5.34 -1 5 C-0.67 3.35 -0.34 1.7 0 0 Z " fill="#272627" transform="translate(824,1153)"/>
<path d="M0 0 C0.99 0.33 1.98 0.66 3 1 C2.625 3.9375 2.625 3.9375 2 7 C1.01 7.495 1.01 7.495 0 8 C-0.98120464 4.94736336 -0.98120464 3.05263664 0 0 Z " fill="#D9DBDA" transform="translate(1089,1068)"/>
<path d="M0 0 C0.33 0 0.66 0 1 0 C1.144375 0.9075 1.28875 1.815 1.4375 2.75 C1.90623358 5.86064554 1.90623358 5.86064554 2.6875 8.25 C2.8421875 9.11625 2.8421875 9.11625 3 10 C2.34 10.66 1.68 11.32 1 12 C-0.26237731 9.47524538 -0.09856404 7.68799534 -0.0625 4.875 C-0.05347656 3.96492188 -0.04445313 3.05484375 -0.03515625 2.1171875 C-0.02355469 1.41851563 -0.01195312 0.71984375 0 0 Z " fill="#333333" transform="translate(664,1021)"/>
<path d="M0 0 C0.99 0 1.98 0 3 0 C2.34 2.31 1.68 4.62 1 7 C0.34 7 -0.32 7 -1 7 C-0.67 4.69 -0.34 2.38 0 0 Z " fill="#0B0B0B" transform="translate(1085,1067)"/>
<path d="M0 0 C2.31 0.33 4.62 0.66 7 1 C6.67 1.66 6.34 2.32 6 3 C4.02 3 2.04 3 0 3 C0 2.01 0 1.02 0 0 Z " fill="#DCDDD7" transform="translate(835,971)"/>
<path d="M0 0 C0.66 0.66 1.32 1.32 2 2 C0.75 3.5625 0.75 3.5625 -1 5 C-3.1875 4.6875 -3.1875 4.6875 -5 4 C-4.34 3.67 -3.68 3.34 -3 3 C-3 2.34 -3 1.68 -3 1 C-2.01 0.67 -1.02 0.34 0 0 Z " fill="#110F10" transform="translate(1142,834)"/>
<path d="M0 0 C1.98 0.495 1.98 0.495 4 1 C4 1.99 4 2.98 4 4 C2.35 4 0.7 4 -1 4 C-0.67 2.68 -0.34 1.36 0 0 Z " fill="#121214" transform="translate(1230,833)"/>
</svg>
